<mxfile host="app.diagrams.net" modified="2024-02-29T21:56:21.363Z" agent="Mozilla/5.0 (X11; Linux x86_64) AppleWebKit/537.36 (KHTML, like Gecko) Chrome/122.0.0.0 Safari/537.36" etag="k1cemHsN8oOxCrRLhoQX" version="24.0.0" type="github">
  <diagram name="PÃ¡gina-1" id="c4E_8iyC3CnI2KJ_ti9L">
    <mxGraphModel dx="786" dy="699" grid="1" gridSize="10" guides="1" tooltips="1" connect="1" arrows="1" fold="1" page="1" pageScale="1" pageWidth="827" pageHeight="1169" math="0" shadow="0">
      <root>
        <mxCell id="0" />
        <mxCell id="1" parent="0" />
        <mxCell id="eA_Vjyv5h-BQfGXNcs9d-1" value="Figura&lt;div&gt;&lt;br&gt;&lt;/div&gt;" style="html=1;whiteSpace=wrap;" vertex="1" parent="1">
          <mxGeometry x="340" y="50" width="110" height="50" as="geometry" />
        </mxCell>
        <mxCell id="eA_Vjyv5h-BQfGXNcs9d-2" value="Cuadrado" style="swimlane;fontStyle=1;align=center;verticalAlign=top;childLayout=stackLayout;horizontal=1;startSize=26;horizontalStack=0;resizeParent=1;resizeParentMax=0;resizeLast=0;collapsible=1;marginBottom=0;whiteSpace=wrap;html=1;" vertex="1" parent="1">
          <mxGeometry x="90" y="230" width="170" height="120" as="geometry" />
        </mxCell>
        <mxCell id="eA_Vjyv5h-BQfGXNcs9d-3" value="- lado: Double" style="text;strokeColor=none;fillColor=none;align=left;verticalAlign=top;spacingLeft=4;spacingRight=4;overflow=hidden;rotatable=0;points=[[0,0.5],[1,0.5]];portConstraint=eastwest;whiteSpace=wrap;html=1;" vertex="1" parent="eA_Vjyv5h-BQfGXNcs9d-2">
          <mxGeometry y="26" width="170" height="26" as="geometry" />
        </mxCell>
        <mxCell id="eA_Vjyv5h-BQfGXNcs9d-4" value="" style="line;strokeWidth=1;fillColor=none;align=left;verticalAlign=middle;spacingTop=-1;spacingLeft=3;spacingRight=3;rotatable=0;labelPosition=right;points=[];portConstraint=eastwest;strokeColor=inherit;" vertex="1" parent="eA_Vjyv5h-BQfGXNcs9d-2">
          <mxGeometry y="52" width="170" height="8" as="geometry" />
        </mxCell>
        <mxCell id="eA_Vjyv5h-BQfGXNcs9d-5" value="+ calcularArea(): Double&lt;div&gt;+ calcularPerimetro(): Double&lt;br&gt;&lt;/div&gt;" style="text;strokeColor=none;fillColor=none;align=left;verticalAlign=top;spacingLeft=4;spacingRight=4;overflow=hidden;rotatable=0;points=[[0,0.5],[1,0.5]];portConstraint=eastwest;whiteSpace=wrap;html=1;" vertex="1" parent="eA_Vjyv5h-BQfGXNcs9d-2">
          <mxGeometry y="60" width="170" height="60" as="geometry" />
        </mxCell>
        <mxCell id="eA_Vjyv5h-BQfGXNcs9d-10" value="Triangulo" style="swimlane;fontStyle=1;align=center;verticalAlign=top;childLayout=stackLayout;horizontal=1;startSize=26;horizontalStack=0;resizeParent=1;resizeParentMax=0;resizeLast=0;collapsible=1;marginBottom=0;whiteSpace=wrap;html=1;" vertex="1" parent="1">
          <mxGeometry x="329" y="220" width="170" height="188" as="geometry" />
        </mxCell>
        <mxCell id="eA_Vjyv5h-BQfGXNcs9d-11" value="- base: Double&lt;div&gt;- altura: Double&lt;br&gt;&lt;/div&gt;&lt;div&gt;- lado1: Double&lt;/div&gt;&lt;div&gt;- lado2: Double&lt;br&gt;&lt;/div&gt;" style="text;strokeColor=none;fillColor=none;align=left;verticalAlign=top;spacingLeft=4;spacingRight=4;overflow=hidden;rotatable=0;points=[[0,0.5],[1,0.5]];portConstraint=eastwest;whiteSpace=wrap;html=1;" vertex="1" parent="eA_Vjyv5h-BQfGXNcs9d-10">
          <mxGeometry y="26" width="170" height="74" as="geometry" />
        </mxCell>
        <mxCell id="eA_Vjyv5h-BQfGXNcs9d-12" value="" style="line;strokeWidth=1;fillColor=none;align=left;verticalAlign=middle;spacingTop=-1;spacingLeft=3;spacingRight=3;rotatable=0;labelPosition=right;points=[];portConstraint=eastwest;strokeColor=inherit;" vertex="1" parent="eA_Vjyv5h-BQfGXNcs9d-10">
          <mxGeometry y="100" width="170" height="28" as="geometry" />
        </mxCell>
        <mxCell id="eA_Vjyv5h-BQfGXNcs9d-13" value="+ calcularArea(): Double&lt;div&gt;+ calcularPerimetro(): Double&lt;br&gt;&lt;/div&gt;" style="text;strokeColor=none;fillColor=none;align=left;verticalAlign=top;spacingLeft=4;spacingRight=4;overflow=hidden;rotatable=0;points=[[0,0.5],[1,0.5]];portConstraint=eastwest;whiteSpace=wrap;html=1;" vertex="1" parent="eA_Vjyv5h-BQfGXNcs9d-10">
          <mxGeometry y="128" width="170" height="60" as="geometry" />
        </mxCell>
        <mxCell id="eA_Vjyv5h-BQfGXNcs9d-15" value="Extends" style="endArrow=block;endSize=16;endFill=0;html=1;rounded=0;exitX=0.5;exitY=0;exitDx=0;exitDy=0;entryX=0.155;entryY=0.98;entryDx=0;entryDy=0;entryPerimeter=0;" edge="1" parent="1" source="eA_Vjyv5h-BQfGXNcs9d-2" target="eA_Vjyv5h-BQfGXNcs9d-1">
          <mxGeometry width="160" relative="1" as="geometry">
            <mxPoint x="210" y="425" as="sourcePoint" />
            <mxPoint x="110" y="585" as="targetPoint" />
          </mxGeometry>
        </mxCell>
        <mxCell id="eA_Vjyv5h-BQfGXNcs9d-16" value="Extends" style="endArrow=block;endSize=16;endFill=0;html=1;rounded=0;exitX=0.412;exitY=0;exitDx=0;exitDy=0;entryX=0.5;entryY=1;entryDx=0;entryDy=0;exitPerimeter=0;" edge="1" parent="1" source="eA_Vjyv5h-BQfGXNcs9d-10" target="eA_Vjyv5h-BQfGXNcs9d-1">
          <mxGeometry x="-0.0011" y="-2" width="160" relative="1" as="geometry">
            <mxPoint x="210" y="110.94" as="sourcePoint" />
            <mxPoint x="213.01999999999998" y="229.99999999999994" as="targetPoint" />
            <mxPoint as="offset" />
          </mxGeometry>
        </mxCell>
        <mxCell id="eA_Vjyv5h-BQfGXNcs9d-17" value="Extends" style="endArrow=block;endSize=16;endFill=0;html=1;rounded=0;exitX=0.5;exitY=0;exitDx=0;exitDy=0;entryX=1;entryY=1;entryDx=0;entryDy=0;" edge="1" parent="1" source="eA_Vjyv5h-BQfGXNcs9d-18" target="eA_Vjyv5h-BQfGXNcs9d-1">
          <mxGeometry width="160" relative="1" as="geometry">
            <mxPoint x="550" y="150" as="sourcePoint" />
            <mxPoint x="710" y="150" as="targetPoint" />
          </mxGeometry>
        </mxCell>
        <mxCell id="eA_Vjyv5h-BQfGXNcs9d-18" value="Circulo" style="swimlane;fontStyle=1;align=center;verticalAlign=top;childLayout=stackLayout;horizontal=1;startSize=26;horizontalStack=0;resizeParent=1;resizeParentMax=0;resizeLast=0;collapsible=1;marginBottom=0;whiteSpace=wrap;html=1;" vertex="1" parent="1">
          <mxGeometry x="600" y="220" width="170" height="120" as="geometry" />
        </mxCell>
        <mxCell id="eA_Vjyv5h-BQfGXNcs9d-19" value="- radio: Double" style="text;strokeColor=none;fillColor=none;align=left;verticalAlign=top;spacingLeft=4;spacingRight=4;overflow=hidden;rotatable=0;points=[[0,0.5],[1,0.5]];portConstraint=eastwest;whiteSpace=wrap;html=1;" vertex="1" parent="eA_Vjyv5h-BQfGXNcs9d-18">
          <mxGeometry y="26" width="170" height="26" as="geometry" />
        </mxCell>
        <mxCell id="eA_Vjyv5h-BQfGXNcs9d-20" value="" style="line;strokeWidth=1;fillColor=none;align=left;verticalAlign=middle;spacingTop=-1;spacingLeft=3;spacingRight=3;rotatable=0;labelPosition=right;points=[];portConstraint=eastwest;strokeColor=inherit;" vertex="1" parent="eA_Vjyv5h-BQfGXNcs9d-18">
          <mxGeometry y="52" width="170" height="8" as="geometry" />
        </mxCell>
        <mxCell id="eA_Vjyv5h-BQfGXNcs9d-21" value="+ calcularArea(): Double&lt;div&gt;+ calcularPerimetro(): Double&lt;br&gt;&lt;/div&gt;" style="text;strokeColor=none;fillColor=none;align=left;verticalAlign=top;spacingLeft=4;spacingRight=4;overflow=hidden;rotatable=0;points=[[0,0.5],[1,0.5]];portConstraint=eastwest;whiteSpace=wrap;html=1;" vertex="1" parent="eA_Vjyv5h-BQfGXNcs9d-18">
          <mxGeometry y="60" width="170" height="60" as="geometry" />
        </mxCell>
        <mxCell id="eA_Vjyv5h-BQfGXNcs9d-22" value="&lt;b&gt;Main&lt;/b&gt;" style="swimlane;fontStyle=0;childLayout=stackLayout;horizontal=1;startSize=26;fillColor=none;horizontalStack=0;resizeParent=1;resizeParentMax=0;resizeLast=0;collapsible=1;marginBottom=0;whiteSpace=wrap;html=1;" vertex="1" parent="1">
          <mxGeometry x="330" y="540" width="140" height="52" as="geometry">
            <mxRectangle x="330" y="540" width="170" height="70" as="alternateBounds" />
          </mxGeometry>
        </mxCell>
        <mxCell id="eA_Vjyv5h-BQfGXNcs9d-23" value="+ int: option" style="text;strokeColor=none;fillColor=none;align=left;verticalAlign=top;spacingLeft=4;spacingRight=4;overflow=hidden;rotatable=0;points=[[0,0.5],[1,0.5]];portConstraint=eastwest;whiteSpace=wrap;html=1;" vertex="1" parent="eA_Vjyv5h-BQfGXNcs9d-22">
          <mxGeometry y="26" width="140" height="26" as="geometry" />
        </mxCell>
        <mxCell id="eA_Vjyv5h-BQfGXNcs9d-26" value="Use" style="endArrow=open;endSize=12;dashed=1;html=1;rounded=0;exitX=0.182;exitY=0.043;exitDx=0;exitDy=0;exitPerimeter=0;entryX=0.771;entryY=1.017;entryDx=0;entryDy=0;entryPerimeter=0;" edge="1" parent="1" source="eA_Vjyv5h-BQfGXNcs9d-22" target="eA_Vjyv5h-BQfGXNcs9d-5">
          <mxGeometry width="160" relative="1" as="geometry">
            <mxPoint x="320" y="360" as="sourcePoint" />
            <mxPoint x="480" y="360" as="targetPoint" />
          </mxGeometry>
        </mxCell>
        <mxCell id="eA_Vjyv5h-BQfGXNcs9d-27" value="Use" style="endArrow=open;endSize=12;dashed=1;html=1;rounded=0;entryX=0.547;entryY=1.033;entryDx=0;entryDy=0;entryPerimeter=0;exitX=0.5;exitY=0;exitDx=0;exitDy=0;" edge="1" parent="1" source="eA_Vjyv5h-BQfGXNcs9d-22" target="eA_Vjyv5h-BQfGXNcs9d-13">
          <mxGeometry width="160" relative="1" as="geometry">
            <mxPoint x="410" y="530" as="sourcePoint" />
            <mxPoint x="397" y="419" as="targetPoint" />
          </mxGeometry>
        </mxCell>
        <mxCell id="eA_Vjyv5h-BQfGXNcs9d-28" value="Use" style="endArrow=open;endSize=12;dashed=1;html=1;rounded=0;exitX=0.871;exitY=-0.057;exitDx=0;exitDy=0;exitPerimeter=0;" edge="1" parent="1" source="eA_Vjyv5h-BQfGXNcs9d-22" target="eA_Vjyv5h-BQfGXNcs9d-21">
          <mxGeometry width="160" relative="1" as="geometry">
            <mxPoint x="474" y="540" as="sourcePoint" />
            <mxPoint x="500" y="406" as="targetPoint" />
          </mxGeometry>
        </mxCell>
      </root>
    </mxGraphModel>
  </diagram>
</mxfile>
